<svg width="138" height="138" viewBox="0 0 138 138" fill="none" xmlns="http://www.w3.org/2000/svg">
<circle cx="69" cy="69" r="69" fill="#1ED760"/>
<path d="M60.112 42.0988C57.3151 41.4529 54.3989 41.5395 51.6453 42.3502C48.8916 43.1609 46.3937 44.6683 44.393 46.7266C42.3922 48.785 40.9564 51.3247 40.2242 54.1003C39.492 56.8758 39.4883 59.7934 40.2133 62.5708C40.8533 64.9868 42.0347 67.2294 43.6667 69.1228L64.88 94.4081C65.3843 95.0105 66.0146 95.495 66.7265 95.8274C67.4383 96.1598 68.2144 96.3321 69 96.3321C69.7856 96.3321 70.5617 96.1598 71.2736 95.8274C71.9854 95.495 72.6157 95.0105 73.12 94.4081L94.336 69.1228C95.9678 67.2277 97.1475 64.9864 97.7859 62.5685C98.4244 60.1505 98.5049 57.6191 98.0213 55.1654L96.7147 55.4241L98.0213 55.1601C97.3489 51.8097 95.6712 48.7438 93.2119 46.3712C90.7525 43.9985 87.6284 42.4319 84.256 41.8801H84.2507C81.7172 41.4753 79.1244 41.6619 76.675 42.4252C74.2255 43.1885 71.9858 44.5078 70.1307 46.2801C69.8234 46.5656 69.4195 46.7242 69 46.7242C68.5806 46.7242 68.1767 46.5656 67.8694 46.2801C65.7043 44.2159 63.0267 42.7717 60.112 42.0988Z" fill="white"/>
</svg>
