<svg width="138" height="138" viewBox="0 0 138 138" fill="none" xmlns="http://www.w3.org/2000/svg">
<circle cx="69" cy="69" r="69" fill="#1ED760"/>
<path d="M45 95.6666C44.2927 95.6666 43.6145 95.3856 43.1144 94.8855C42.6143 94.3854 42.3333 93.7072 42.3333 92.9999V44.9999C42.3333 44.2927 42.6143 43.6144 43.1144 43.1143C43.6145 42.6142 44.2927 42.3333 45 42.3333C45.7072 42.3333 46.3855 42.6142 46.8856 43.1143C47.3857 43.6144 47.6666 44.2927 47.6666 44.9999V92.9999C47.6666 93.7072 47.3857 94.3854 46.8856 94.8855C46.3855 95.3856 45.7072 95.6666 45 95.6666ZM78.3333 42.6906C77.9279 42.4565 77.4681 42.3333 77 42.3333C76.5319 42.3333 76.0721 42.4565 75.6667 42.6906C75.2613 42.9246 74.9247 43.2612 74.6906 43.6666C74.4566 44.072 74.3333 44.5318 74.3333 44.9999V92.9999C74.3333 93.7072 74.6143 94.3854 75.1144 94.8855C75.6145 95.3856 76.2927 95.6666 77 95.6666H93C93.7072 95.6666 94.3855 95.3856 94.8856 94.8855C95.3857 94.3854 95.6666 93.7072 95.6666 92.9999V54.2373C95.6666 53.7692 95.5434 53.3093 95.3094 52.904C95.0753 52.4986 94.7387 52.162 94.3333 51.9279L78.3333 42.6906ZM61 42.3333C60.2927 42.3333 59.6145 42.6142 59.1144 43.1143C58.6143 43.6144 58.3333 44.2927 58.3333 44.9999V92.9999C58.3333 93.7072 58.6143 94.3854 59.1144 94.8855C59.6145 95.3856 60.2927 95.6666 61 95.6666C61.7072 95.6666 62.3855 95.3856 62.8856 94.8855C63.3857 94.3854 63.6666 93.7072 63.6666 92.9999V44.9999C63.6666 44.2927 63.3857 43.6144 62.8856 43.1143C62.3855 42.6142 61.7072 42.3333 61 42.3333Z" fill="white"/>
</svg>
