<svg width="138" height="138" viewBox="0 0 138 138" fill="none" xmlns="http://www.w3.org/2000/svg">
<circle cx="69" cy="69" r="69" fill="#1ED760"/>
<path d="M39.6666 69.0001C39.6666 52.8001 52.8 39.6667 69 39.6667C85.2 39.6667 98.3333 52.8001 98.3333 69.0001C98.3333 85.2001 85.2 98.3334 69 98.3334C52.8 98.3334 39.6666 85.2001 39.6666 69.0001ZM63 56.8214C62.7973 56.7044 62.5673 56.6428 62.3333 56.6428C62.0993 56.6428 61.8693 56.7044 61.6666 56.8214C61.4639 56.9384 61.2956 57.1067 61.1786 57.3094C61.0616 57.5121 61 57.742 61 57.9761V80.0241C61 80.2581 61.0616 80.488 61.1786 80.6907C61.2956 80.8934 61.4639 81.0617 61.6666 81.1788C61.8693 81.2958 62.0993 81.3574 62.3333 81.3574C62.5673 81.3574 62.7973 81.2958 63 81.1787L82.096 70.1547C82.2986 70.0377 82.4669 69.8694 82.584 69.6667C82.701 69.464 82.7626 69.2341 82.7626 69.0001C82.7626 68.766 82.701 68.5361 82.584 68.3334C82.4669 68.1308 82.2986 67.9624 82.096 67.8454L63 56.8214Z" fill="white"/>
</svg>
