<svg width="138" height="138" viewBox="0 0 138 138" fill="none" xmlns="http://www.w3.org/2000/svg">
<circle cx="69" cy="69" r="69" fill="#1ED760"/>
<path d="M76.936 40.2533C77.0677 39.6719 77.0008 39.0631 76.7459 38.5242C76.491 37.9853 76.063 37.5473 75.53 37.2802C74.997 37.0131 74.3899 36.9323 73.8057 37.0507C73.2214 37.1691 72.6936 37.4798 72.3067 37.9333L40.3067 75.2666C39.9753 75.654 39.762 76.1283 39.6918 76.6332C39.6217 77.1381 39.6978 77.6526 39.9111 78.1156C40.1244 78.5786 40.4659 78.9708 40.8952 79.2457C41.3245 79.5206 41.8236 79.6667 42.3333 79.6666H65.144L61.064 97.7466C60.9335 98.3274 61.001 98.9352 61.2559 99.4732C61.5107 100.011 61.9383 100.448 62.4704 100.715C63.0026 100.982 63.6087 101.063 64.1923 100.946C64.7759 100.828 65.3033 100.519 65.6907 100.067L97.6907 62.7333C98.0219 62.3461 98.2352 61.8721 98.3054 61.3674C98.3756 60.8627 98.2998 60.3485 98.0868 59.8856C97.8739 59.4226 97.5328 59.0304 97.1039 58.7553C96.675 58.4802 96.1762 58.3338 95.6667 58.3333H72.856L76.936 40.2533Z" fill="white"/>
</svg>
